<?xml version="1.0" encoding="utf-8"?>
<!-- Generator: Adobe Illustrator 15.0.0, SVG Export Plug-In . SVG Version: 6.00 Build 0)  -->
<!DOCTYPE svg PUBLIC "-//W3C//DTD SVG 1.1//EN" "http://www.w3.org/Graphics/SVG/1.1/DTD/svg11.dtd">
<svg version="1.1" id="Layer_2" xmlns="http://www.w3.org/2000/svg" xmlns:xlink="http://www.w3.org/1999/xlink" x="0px" y="0px"
	 width="360px" height="360px" viewBox="0 0 360 360" enable-background="new 0 0 360 360" xml:space="preserve">
<path fill="#CC7722" d="M261.341,322.741c-6.327-12.522-13.145-24.783-19.707-37.185c-7.448-14.076-14.632-28.297-22.408-42.196
	c-4.913-8.782-9.927-17.511-14.764-26.337c-0.603-0.711-1.211-1.42-1.812-2.133c10.473,23.112,19.021,47.129,29.201,70.371
	c5.753,13.133,11.595,26.236,16.897,39.562c1.174,2.95,2.372,5.926,3.544,8.925c3.968-1.871,7.822-3.896,11.584-6.031
	C263.018,326.055,262.175,324.391,261.341,322.741z"/>
<path fill="#CC7722" d="M243.524,280.713c6.743,12.565,13.758,25.004,20.199,37.728c1.225,2.419,2.464,4.817,3.737,7.192
	c7.365-4.426,21.087-14.223,18.592-17.289c-9.309-11.371-17.176-19.457-27.163-30.229c-15.352-16.562-43.342-55.295-58.129-72.409
	C211.291,223.07,233.892,262.768,243.524,280.713z"/>
<path fill="#CC7722" d="M238.529,326.995c1.341,3.662,2.7,7.317,4.051,10.978c2.088-0.832,4.149-1.7,6.188-2.605
	c-1.53-4.332-3.104-8.647-4.821-12.909c-5.113-12.69-10.594-25.229-16-37.796c-10.75-24.99-19.822-50.635-30.294-75.73
	c-0.197-0.236-0.396-0.473-0.594-0.709c-0.765,0.446-1.552,0.867-2.356,1.26c10.481,25.168,19.666,50.894,28.956,76.517
	C228.614,299.663,233.528,313.346,238.529,326.995z"/>
<path fill="#CC7722" d="M191.934,210.678c2.772,11.191,4.911,22.52,7.43,33.789c3.193,14.297,7.252,28.383,11.307,42.455
	c3.938,13.672,7.702,27.383,11.133,41.19c1.298,5.225,2.754,10.357,4.298,15.454c4.043-1.157,8.074-2.452,12.084-3.926
	c-1.335-3.669-2.68-7.332-4.004-11.003c-4.933-13.677-9.864-27.354-14.68-41.071c-9.018-25.696-18.314-51.307-26.978-77.127
	c-0.195,0.078-0.388,0.162-0.585,0.236C191.938,210.678,191.936,210.678,191.934,210.678z"/>
<path fill="#CC7722" d="M220.913,344.967c-1.328-5.062-2.502-10.149-3.717-15.11c-3.391-13.836-7.055-27.577-10.791-41.32
	c-6.94-25.532-12.595-51.036-16.761-77.108c-0.274,0.08-4.064,0.691-2.382,0.652c2.337,26.477,6.125,52.75,8.036,79.037
	c1.4,19.263,0.462,35.798,1.393,55.151C197.15,348.898,212.855,347.004,220.913,344.967z"/>
<path fill="#CC7722" d="M184.114,218.977c0.485,7.93,0.557,15.877,0.329,23.815c-0.458,16.004-1.86,32.019-3.176,47.972
	c-1.346,16.319-2.878,32.639-4.793,48.901c-0.41,3.482-0.831,6.969-1.222,10.456c4.764,0.108,14.611-1.41,14.546-4.058
	c0.074-5.179,0.083-6.538-0.028-11.5c-0.318-14.287-0.521-28.575-0.815-42.862c-0.541-26.453-3.277-52.799-3.801-79.25
	c-0.433,0.066-0.864,0.109-1.296,0.163C183.975,214.872,183.997,217.078,184.114,218.977z"/>
<path fill="#CC7722" d="M172.968,340.902c1.874-15.58,3.44-31.204,4.917-46.826c1.5-15.861,3.1-31.777,3.878-47.693
	c0.385-7.852,0.791-15.709,0.601-23.572c-0.025-1.055-0.057-2.107-0.094-3.162c-1.386,10.603-3.443,21.175-4.781,31.738
	c-1.834,14.482-3.311,29.008-4.545,43.557c-1.197,14.109-2.48,28.22-3.584,42.338c-0.33,4.204-0.533,8.396-0.683,12.581
	c1.073,0.065,2.151,0.104,3.229,0.147C172.246,346.973,172.603,343.938,172.968,340.902z"/>
<path fill="#CC7722" d="M177.068,215.544c-3.441,26.115-11.089,51.448-17.473,76.952c-3.6,14.376-6.289,28.973-9.607,43.414
	c-0.862,3.749-1.719,7.514-2.643,11.256c4.877,0.928,9.803,1.654,14.766,2.156c0.317-3.814,0.678-7.596,0.988-11.293
	c1.188-14.058,2.705-28.09,4.105-42.125c1.513-15.146,3.201-30.281,5.375-45.35c1.822-12.64,4.789-25.111,6.813-37.701
	c-0.438-0.006-0.878-0.012-1.316-0.034C177.759,213.732,177.41,214.639,177.068,215.544z"/>
<path fill="#CC7722" d="M146.283,337.242c3.381-14.467,6.19-29.1,9.951-43.477c6.154-23.545,14.879-57.306,19.526-81.188
	c-2.731,7.047-10.438,27.284-13.375,34.25c-6.438,15.284-9.81,27.701-16.01,43.084c-6.302,15.629-12.177,31.426-18.376,47.094
	c-0.623,1.574-0.346,1.166-0.998,2.729c-0.711,2.006,10.953,5.498,17.031,6.776C144.816,343.432,145.56,340.338,146.283,337.242z"/>
<path fill="#CC7722" d="M131.975,292.352c-6.697,14.627-13.164,29.437-20.044,44.024c2.851,1.217,8.942,3.402,9.537,1.439
	c0.457-1.131,1.303-3.407,1.759-4.539c6.299-15.636,11.079-28.236,17.534-43.808c6.351-15.32,13.135-30.453,19.722-45.674
	c3.275-7.566,6.543-15.141,9.682-22.765c1.188-2.884,2.438-5.772,3.58-8.701c-1.545-0.274-3.064-0.669-4.559-1.144
	C158.074,238.799,144.359,265.309,131.975,292.352z"/>
<path fill="#CC7722" d="M146.019,243.208c-9.219,12.821-18.3,25.722-27.259,38.726c-9.773,14.189-17.252,25.841-27.032,40.135
	c-1.356,1.716,9.796,9.603,15.995,12.445c0.286-0.588,0.579-1.174,0.864-1.762c6.765-13.932,13.146-28.037,19.772-42.031
	c12.727-26.857,25.935-53.531,39.494-79.98c-0.38-0.139-0.752-0.295-1.127-0.441C160.914,221.902,153.596,232.669,146.019,243.208z"
	/>
<path fill="#CC7722" d="M153.408,223.083c-5.674,7.202-11.386,14.374-17.097,21.546c-11.356,14.262-22.282,28.852-33.479,43.236
	c-7.812,10.036-15.543,20.204-23.521,30.143c2.426,1.731,7.854,4.715,8.859,3.134c9.645-13.714,17.914-25.489,27.428-39.253
	c9.02-13.049,18.173-25.969,27.527-38.775c7.896-10.809,15.617-21.747,22.229-33.383c-0.435-0.19-0.862-0.396-1.288-0.604
	C161.019,214.123,157.044,218.471,153.408,223.083z"/>
<path fill="#CC7722" d="M99.326,287.536c11.291-14.302,22.359-28.776,33.865-42.911c5.786-7.107,9.846-12.49,15.693-19.547
	c0.427-0.516,12.312-16.365,12.75-16.875c-0.3,0.305-11.573,12.57-11.875,12.875c-7.438,7.49-15.232,15.211-22.75,22.625
	c-14.764,14.561-28.016,30.395-43.448,44.24c-6.567,5.894-13.198,11.709-19.854,17.492c4.146,3.776,8.477,7.319,12.955,10.646
	C84.326,306.652,91.809,297.059,99.326,287.536z"/>
<path fill="#CC7722" d="M297.331,300.411c-4.536-5.324-8.965-10.737-13.505-16.058c-9.524-11.157-19.458-21.99-29.56-32.627
	c-9.762-10.279-20.168-19.887-30.021-30.062c-1.766-1.822-3.532-3.629-5.311-5.416c-1.889-1.678-3.722-3.411-5.454-5.227
	c-0.222-0.233-0.436-0.478-0.654-0.711c-2.805-2.629-5.683-5.168-8.697-7.567c-1.115,1.121-0.849,0.741-2.117,1.71
	c21.388,21.675,39.64,46.452,60.55,68.58c10.265,10.861,17.265,17.585,26.768,29.129c0.144,0.175,0.289,0.35,0.433,0.523
	c2.486,2.248,6.966,0.791,8.701-0.896C298.088,301.321,297.713,300.857,297.331,300.411z"/>
<path fill="#CC7722" d="M253.982,246.717c9.853,10.16,19.502,20.551,28.805,31.221c6.094,6.988,11.793,14.555,17.939,21.613
	c4.094-4.132,12.364-12.652,9.39-14.867c-3.053-2.453-3.923-2.959-7.051-5.342c-12.178-9.271-23.283-19.988-35.554-29.139
	c-9.014-6.723-52.095-42.594-61.25-49.125C211.304,205.926,249.108,241.688,253.982,246.717z"/>
<path fill="#CC7722" d="M310.31,259.688c-12.09-8.381-24.853-15.715-37.481-23.24c-12.298-7.329-24.096-15.314-36.121-23.068
	c-6.463-4.168-13.019-8.24-19.817-11.844c-2.754-1.459-5.591-2.797-8.381-4.216c-0.17,0.258-0.322,0.526-0.5,0.78
	c2.954,2.903,5.769,5.941,8.861,8.731c5.238,4.728,10.689,9.226,16.405,13.364c11.826,8.564,24.24,16.269,36.079,24.812
	c12.411,8.957,24.449,18.422,36.659,27.646c3.601,2.721,5.327,4.091,8.844,6.893c1.992,1.383,6.997-5.925,9.372-9.723
	C319.536,266.396,314.923,262.887,310.31,259.688z"/>
<path fill="#CC7722" d="M238.425,211.258c12.396,7.854,24.624,15.879,37.3,23.286c12.395,7.241,24.931,14.317,36.791,22.42
	c4.599,3.142,9.161,6.332,13.744,9.494c1.497-2.521,2.954-5.062,4.32-7.653c-11.915-7.898-24.496-14.49-37.322-20.824
	c-17.159-8.476-34.457-16.646-51.297-25.748c-7.508-4.059-14.964-8.235-22.14-12.862c-3.045-1.964-6.049-3.983-8.952-6.146
	c-0.415,0.85-0.86,1.686-1.338,2.5C219.329,200.596,229.073,205.334,238.425,211.258z"/>
<path fill="#CC7722" d="M326.176,238.57c-14.26-4.98-28.191-10.76-41.971-16.938c-13.05-5.854-26.254-11.393-38.946-17.998
	c-10.594-5.516-21.254-11.015-32.729-14.414c-0.013,0.034-0.021,0.069-0.034,0.104c3.163,2.171,6.371,4.286,9.654,6.266
	c7.138,4.299,14.466,8.271,21.844,12.141c15.839,8.31,32.043,15.84,48.123,23.662c12.886,6.271,26.117,12.429,38.055,20.408
	c0.984,0.655,1.97,1.312,2.954,1.971c1.767-3.633,3.391-7.336,4.899-11.084C334.078,241.305,330.123,239.949,326.176,238.57z"/>
<path fill="#CC7722" d="M329.609,222.021c-13.271-5.187-26.778-9.715-40.357-14.018c-13.952-4.418-27.994-8.553-41.925-13.031
	c-11.068-3.562-22.455-6.765-33.458-10.724c-0.13,0.663-0.277,1.322-0.444,1.978c11.309,2.504,21.778,7.608,32.154,12.686
	c12.788,6.253,25.882,11.745,38.941,17.4c13.88,6.011,27.787,11.914,42.109,16.805c4.444,1.518,8.856,3.111,13.263,4.718
	c1.38-3.753,2.621-7.56,3.741-11.403C338.839,225.204,334.233,223.828,329.609,222.021z"/>
<path fill="#CC7722" d="M248.671,191.993c14.591,4.489,29.234,8.802,43.8,13.371c14.231,4.464,28.107,9.657,42.137,14.677
	c3.201,1.146,6.625,1.922,10.067,2.697c0.491-1.837,1.562-5.83-1.03-6.321c-14.527-4.28-26.625-7.841-41.166-12.077
	c-17.102-4.984-34.312-9.486-51.669-13.498c-5.364-1.24-10.869-2.291-16.376-3.41C239.201,188.975,243.947,190.54,248.671,191.993z"
	/>
<path fill="#CC7722" d="M89.896,266.521c13.486-11.955,26.754-24.162,40.178-36.188c9.08-8.134,19.164-16.104,27.742-25.147
	c-0.863-0.674-3.258-2.725-4.055-3.48c-3.607,2.984-5.964,7.009-9.502,9.98c-8.453,7.103-16.979,14.123-25.645,20.963
	c-17.346,13.689-35.092,26.839-53.078,39.668c-6.586,4.697-11.055,7.867-17.696,12.486c-1.826,0.823,3.733,8.479,6.86,11.781
	C66.555,286.708,78.351,276.758,89.896,266.521z"/>
<path fill="#CC7722" d="M133.182,231.348c-13.312,12.166-26.443,24.554-39.896,36.562c-11.875,10.603-23.984,20.933-36.176,31.167
	c0.692,0.703,1.381,1.415,2.086,2.104c5.049-4.31,10.075-8.646,15.062-13.035c16.623-14.64,33.176-29.385,49.098-44.791
	c7.653-7.404,15.033-15.092,22.686-22.498c4.748-4.594,9.531-9.168,13.771-14.211c-0.166-0.11-0.325-0.229-0.489-0.346
	C151.389,215.381,141.878,223.402,133.182,231.348z"/>
<path fill="#CC7722" d="M66.734,230.491c14.715-6.088,29.112-12.711,43.353-19.835c12.396-6.203,24.917-12.812,38.104-17.283
	c-0.283-0.572-1.551-2.449-1.804-3.045c-34.465,13.089-67.06,29.715-101.823,42.073c-8.313,2.956-15.244,5.366-23.654,8.016
	c-0.269,2.595,0.434,5.015,1.429,7.284C37.199,242.133,52.068,236.561,66.734,230.491z"/>
<path fill="#CC7722" d="M79.01,246.122c-13.716,7.854-27.275,15.961-40.947,23.892c-0.96,0.559-1.923,1.109-2.885,1.664
	c2.068,3.215,6.086,9.865,7.975,8.262c6.721-4.613,11.93-8.127,18.584-12.832c17.506-12.377,34.916-24.893,51.879-38.01
	c8.088-6.254,33.021-20.645,39.271-28.77C134.42,213.917,98.763,234.811,79.01,246.122z"/>
<path fill="#CC7722" d="M33.814,267.475c13.774-7.854,27.409-15.948,41.262-23.668c25.914-14.438,51.278-29.267,75.408-46.492
	c-0.398-0.594-0.787-1.197-1.15-1.819c-26.016,12.138-51.174,26.09-77.608,37.302c-14.262,6.049-28.696,11.667-43.166,17.197
	c-1.479,0.564-2.962,1.12-4.446,1.675c2.648,5.655,5.586,11.099,8.77,16.334C33.191,267.824,33.504,267.651,33.814,267.475z"/>
<path fill="#CC7722" d="M336.673,166.001c-15.323,0.883-30.663,0.797-46,1.204c-7.946,0.211-68.022,1.972-75.912,2.623
	c3.855,0.559,55.878,3.02,59.75,3.375c13.625,1.25,31.164,1.355,44.81,2.763c7.157,0.738,14.306,1.588,21.473,2.238
	c2.969,0.27,1.895,0.327,4.874,0.433c4.199,0.15,4.483-4.895,4.712-4.855c0.007-4.688-0.167-4.07-0.557-8.783
	C345.47,165.364,341.1,165.747,336.673,166.001z"/>
<path fill="#CC7722" d="M292.269,163.715c15.848-0.463,31.825-0.184,47.624-1.635c3.152-0.29,6.346-0.659,9.559-1.014
	c-0.508-4.789-1.209-9.582-2.13-14.369c-14.64,3.007-29.353,5.686-44.044,8.406c-16.657,3.084-33.893,5.546-50.641,8.101
	c-4.235,0.646-21.14,3.096-25.375,3.75c4.08,0.163,23.875-0.625,31.25-1.375C271.671,164.146,279.005,164.102,292.269,163.715z"/>
<path fill="#CC7722" d="M230.467,163.961c8.079-1.499,16.18-2.868,24.294-4.166c16.762-2.682,33.405-5.986,50.087-9.122
	c13.882-2.61,27.812-5.107,41.645-8.011c-0.675-3.103-1.924-8.645-6.648-8.062c-4.271,1.214-4.137,1.339-8.389,2.291
	c-13.932,3.119-27.978,5.599-41.998,8.277c-15.033,2.872-29.783,6.518-44.486,10.756c-10.149,2.926-21.526,4.962-31.961,7.153
	c1.125,1.625,1.875,4.5,2.25,5.625C217.527,168.209,228.176,164.388,230.467,163.961z"/>
<path fill="#CC7722" d="M242.688,140.799c12.872-7.458,25.739-14.92,38.673-22.271c12.856-7.306,25.618-14.73,37.874-23.019
	c2.271-1.536,4.585-3.004,6.915-4.451c-3.057-5.121-9.355-14.961-13.501-11.791c-12.662,10.709-22.032,18.087-34.79,28.668
	c-12.422,10.301-24.292,21.237-36.933,31.276c-4.189,3.328-8.426,6.601-12.691,9.838
	C233.054,146.275,237.908,143.569,242.688,140.799z"/>
<path fill="#CC7722" d="M334.471,109.332c-6.476,2.889-13.152,5.256-19.775,7.779c-14.595,5.559-29.173,11.22-43.351,17.785
	c-14.135,6.546-28.152,13.33-42.323,19.804c-1.497,0.684-3.004,1.356-4.514,2.026c-0.889,0.473-1.771,0.957-2.663,1.424
	c9.021-2.831,18.132-5.457,27.12-8.149c13.806-4.137,27.756-7.495,41.886-10.323c13.919-2.786,21.322-3.292,35.032-7.017
	c3.243-0.881,7.763-1.995,11.155-3.014c6.01-1.069,3.489-8.092,2.282-11.286c-1.214-3.212-2.521-6.362-3.906-9.456
	C335.099,109.05,334.786,109.191,334.471,109.332z"/>
<path fill="#CC7722" d="M273.512,130.704c14.788-6.767,30.002-13.667,45.194-19.458c5.057-1.927,10.014-3.973,14.956-6.121
	c-1.521-3.187-3.125-6.312-4.819-9.367c-2.722,1.67-5.427,3.362-8.077,5.126c-12.309,8.197-31.218,17.498-44.129,24.695
	c-6.134,3.419-58.271,31.331-64.375,34.875C215.333,158.993,270.422,132.119,273.512,130.704z"/>
<path fill="#CC7722" d="M306.498,66.581c-11.643,11.859-22.759,24.221-34.452,36.029c-11.152,11.259-24.107,21.053-36.034,31.469
	c-5.886,5.139-20.01,19.312-25.5,24.875c6.23-4.862,21.884-16.621,28-21.625c12.506-10.232,24.187-22.835,36.521-33.264
	c12.632-10.681,22.005-18.155,34.604-28.87c3.27-3.374-0.167-7.421-2.104-9.616C307.177,65.913,306.826,66.247,306.498,66.581z"/>
<path fill="#CC7722" d="M233.656,133.081c11.998-10.793,24.238-21.223,35.489-32.818c11.122-11.463,21.755-23.388,32.887-34.84
	c0.9-0.927,1.874-1.835,2.882-2.74c-3.963-4.286-11.67-12.829-15.052-8.343c-7.578,10.804-12.685,17.694-20.72,28.162
	c-11.23,14.633-23.104,28.761-34.336,43.396c-5.357,6.981-10.646,14.025-15.76,21.189
	C223.728,142.225,228.638,137.595,233.656,133.081z"/>
<path fill="#CC7722" d="M274.969,42.344c-8.909,14.282-17.75,28.604-26.675,42.875c-8.312,13.292-16.867,26.375-25.602,39.39
	c-4.478,6.67-8.92,13.382-12.959,20.329c-1.716,2.949-3.289,5.483-4.846,8.515c0.648,0.677,2.341,1.708,2.938,2.438
	c3.222-4.334,4.775-9.235,7.708-13.478c5.103-7.384,10.359-14.656,15.757-21.827c10.331-13.727,21.216-27.021,31.58-40.719
	c8.378-11.073,13.724-18.765,21.625-30.18c3.263-5.51-3.825-8.712-7.201-11.071C276.519,39.858,275.744,41.1,274.969,42.344z"/>
<path fill="#CC7722" d="M220.533,122.864c9.146-14.139,18.062-28.403,26.867-42.758c8.886-14.487,17.669-29.04,26.646-43.473
	c0.03-0.049,0.06-0.098,0.09-0.146c-2.68-1.785-5.392-3.52-8.164-5.148c-5.129,10.097-11.706,19.519-16.834,29.616
	c-12.036,23.699-34.152,66.582-46.25,90.25C205.034,147.911,218.477,126.041,220.533,122.864z"/>
<path fill="#CC7722" d="M270.512,184.037c-14.336-2.186-16.052-1.916-30.5-3.209c-1.686-0.15-23.002-2.307-24.875-2.375
	c-0.312,1.188-0.5,2.187-0.458,3.25c8.786,1.198,37.688,6.531,46.333,8.5c16.74,3.814,30.676,5.725,47.167,10.5
	c13.417,3.887,22.427,6.582,35.833,10.5c3.425,0.576,5.332-12.88,5.734-17.544C323.568,190.797,296.476,187.993,270.512,184.037z"/>
<path fill="#CC7722" d="M243.637,178.704c14.087,1.721,18.959,1.303,33,3.375c24.664,3.641,48.625,5,73.446,6.913
	c0.047-0.783-0.321-2.163-2.446-3.788c-1.125-0.75-3.788-1.049-4.75-1.125c-7.142-0.564-9.884-0.424-17-1.25
	c-14.94-1.732-106.907-10.09-110.25-10.75c0.115,0.509-0.469,4.24-0.375,4.75C221.828,177.606,237.217,177.919,243.637,178.704z"/>
<path fill="#CC7722" d="M237.539,66.327c-6.967,16.221-14.188,32.334-21.855,48.237c-5.573,11.558-11.269,23.143-15.536,35.245
	c0.023,0.016,0.049,0.031,0.071,0.047c14.565-33.218,31.635-65.385,47.841-97.807c4.006-8.011,8.034-16.01,12.055-24.014
	c-1.786-0.958-3.593-1.875-5.41-2.77C249.04,38.977,243.395,52.697,237.539,66.327z"/>
<path fill="#CC7722" d="M200.889,139.97c3.188-7.913,6.704-15.68,10.296-23.416c7.414-15.962,14.699-31.971,21.559-48.18
	c6.291-14.866,12.396-29.81,18.532-44.741c-3.646-1.694-10.258-5.886-12.569-0.335c-4.446,14.711-7.442,25.053-12.496,39.568
	c-5.735,16.473-10.507,21.811-16.448,38.213c-2.86,7.897-7.646,22.319-10.75,30.125c-1.482,3.729-4.281,10.543-5.625,14.25
	c0.911,0.451,3.483,2.225,4.353,2.754C198.692,145.388,199.819,142.626,200.889,139.97z"/>
<path fill="#CC7722" d="M131.757,185.189c-6.752,1.931-13.451,4.031-20.157,6.109c-13.73,4.258-27.389,8.745-41.068,13.16
	c-13.563,4.377-27.059,8.973-40.635,13.311c-5.39,1.723-10.804,3.506-16.246,5.221c0.836,3.122,2.646,7.588,5.85,8.516
	c9.004-2.779,14.889-4.916,23.773-8.07c18.534-6.58,36.854-13.75,55.122-21.027c15.442-6.154,31.45-9.812,47.366-14.828
	c-0.197-1.117-0.867-4.896-1.012-6.96C140.609,182.579,136.244,183.905,131.757,185.189z"/>
<path fill="#CC7722" d="M130.799,177.532c-7.592,0.606-15.162,1.398-22.705,2.448c-14.98,2.083-29.848,4.896-44.838,6.911
	c-14.669,1.973-29.418,3.453-44.213,4.039c-3.577,0.142-5.532,0.146-9.112,0.185c-2.38-0.169,0.165,16.534,1.991,24.754
	c5.81-1.671,11.609-3.362,17.369-5.196c12.967-4.132,25.914-8.334,38.908-12.375c13.737-4.271,27.459-8.601,41.274-12.611
	c10.317-2.996,24.46-4.979,34.661-8.729C140.582,177.341,133.807,177.292,130.799,177.532z"/>
<path fill="#CC7722" d="M55.363,174.37c-15.756-0.704-31.556-1.692-47.336-1.762c-0.173,4.602-0.449,13.693,2.457,13.84
	c3.527,0.011,4.619,0.004,8.133-0.13c14.179-0.537,28.324-1.729,42.397-3.531c19.2-2.46,33.179-3.345,42.747-4.583
	c1.713-0.222,18.785-2.168,20.5-2.375C106.359,175.637,73.285,175.17,55.363,174.37z"/>
<path fill="#CC7722" d="M9.099,169.474c16.24,0.133,32.515,1.242,48.733,1.993c17.994,0.833,35.787,2.312,53.805,2.36
	c2.87,0.008,29.751,0.631,32.625,0.625c-4.645-0.462-32.357-3.025-37-3.5c-15.26-1.563-31.296-2.071-46.568-3.494
	c-14.627-1.361-29.205-2.995-43.787-4.762c-2.584-0.313-5.334-0.595-8.146-0.929c-0.259,2.556-0.438,5.125-0.583,7.699
	C8.484,169.47,8.789,169.472,9.099,169.474z"/>
<path fill="#CC7722" d="M66.012,159.938c-14.654-3.586-29.229-7.667-43.99-10.793c-3.656-0.775-4.96-1.118-8.675-1.907
	c-3.425-0.576-3.591,6.287-4.028,9.655c3.729,0.555,7.465,1.037,11.203,1.528c14.241,1.871,28.5,3.486,42.793,4.907
	c10.49,1.043,44.883,5.077,55.363,6.21C109.056,167.491,75.576,162.277,66.012,159.938z"/>
<path fill="#CC7722" d="M26.027,145.313c14.28,3.271,28.414,7.22,42.637,10.737c14.418,3.564,28.844,6.943,43.447,9.655
	c6.824,1.268,13.658,2.481,20.465,3.843c3.805,0.761,7.642,1.834,11.482,2.688c0.385,0.022,0.768,0.051,1.15,0.064
	c0.035-0.209,0.062-0.417,0.104-0.625c-1.736-0.443-3.465-1.087-5.099-1.644c-7.716-2.631-15.333-5.505-22.914-8.497
	c-14.669-5.792-29.413-11.358-43.828-17.769c-14.196-6.313-28.214-13.023-42.431-19.294c-4.104-1.811-8.227-3.59-12.367-5.316
	c-2.787,7.476-8.84,22.328-3.803,23.631C19.553,143.872,21.296,144.229,26.027,145.313z"/>
<path fill="#CC7722" d="M66.832,130.188c-14.506-7.405-29.103-14.617-43.688-21.862c-0.928,2.053-1.815,4.123-2.664,6.209
	c3.113,1.307,6.216,2.64,9.302,4.01c13.113,5.823,26.043,12.042,39.067,18.058c13.658,6.305,27.552,11.911,41.437,17.682
	c6.93,2.881,13.853,5.782,20.811,8.596c3.479,1.406,6.954,2.853,10.489,4.111c1.368,0.487,2.868,1.208,4.409,1.753
	c0.211-0.764,0.443-1.522,0.699-2.272C118.777,158.023,92.675,143.383,66.832,130.188z"/>
<path fill="#CC7722" d="M28.086,105.72c14.148,7.081,28.23,14.279,42.273,21.572c25.207,13.095,50.608,27.09,77.592,36.291
	c0.009-0.019,0.015-0.039,0.021-0.057c-4.875-2.693-9.96-5.046-14.712-7.947c-7.484-4.57-14.932-9.205-22.336-13.904
	c-14.85-9.424-29.701-18.869-44.236-28.77c-11.293-7.689-19.643-13.638-30.648-21.732c-4.602-2.27-8.432,7.951-10.869,13.063
	C26.141,104.731,27.107,105.231,28.086,105.72z"/>
<path fill="#CC7722" d="M144.369,155.044c-5.455-4.285-10.996-8.46-16.516-12.665c-11.133-8.485-21.918-17.31-32.207-26.806
	C79.24,100.431,63.703,84.513,48.221,68.486c-4.244,5.044-13.963,14.586-8.85,17.865c9.608,7.24,16.783,11.875,26.531,18.646
	c15.469,10.745,31.15,21.179,46.838,31.598c8.177,5.429,16.422,10.75,24.586,16.194c3.979,2.654,8.179,4.942,12.216,7.478
	c0.06-0.101,0.122-0.199,0.184-0.299C147.92,158.271,146.188,156.474,144.369,155.044z"/>
<path fill="#CC7722" d="M66.349,82.416c9.892,9.871,19.726,19.813,29.896,29.4c10.197,9.614,20.795,18.65,31.824,27.298
	c5.453,4.277,10.941,8.518,16.327,12.883c2.275,1.844,3.859,4.09,5.991,6.206c0.128-0.188,2.118-2.69,2.25-2.875
	c-9.166-7.788-17.424-17.004-25.875-25.5c-11.844-11.905-24.4-24.108-36.5-35.75c-12.014-11.56-19.934-19.875-31.375-32
	c-2.508-2.393-7.031,2.221-8.127,3.464C55.964,71.187,60.979,77.059,66.349,82.416z"/>
<path fill="#CC7722" d="M220.983,17.569c-3.332,15.366-7.249,30.594-10.968,45.869c-4.732,19.443-15.487,61.716-19.879,81.267
	c1.318-3.83,10.292-29.926,11.625-33.75c5.752-16.497,9.897-33.485,15.521-50.024c5.069-14.917,8.778-27.577,13.232-42.687
	c1.439-3.618-5.44-4.315-8.597-5.127C221.612,14.6,221.304,16.085,220.983,17.569z"/>
<path fill="#CC7722" d="M190.193,138.409c1.877-11.407,4.478-22.702,7.085-33.956c3.491-15.065,6.776-30.178,10.342-45.227
	c3.702-15.63,7.538-31.239,10.669-46.997c-2.781-0.651-5.575-1.256-8.39-1.772c-0.792,3.982-1.562,7.969-2.271,11.971
	c-2.5,14.152-4.771,28.347-7.416,42.474c-4.908,26.211-12.073,52.188-13.572,78.916c0.526,0.107,1.053,0.221,1.571,0.357
	C188.812,142.239,189.503,140.322,190.193,138.409z"/>
<path fill="#CC7722" d="M196.703,64.308c3.149-18.003,5.537-36.436,8.954-54.571c-3.955-0.622-7.938-1.124-11.945-1.469
	c-0.026,0.397-0.055,0.794-0.081,1.191c-0.952,14.632-2.109,29.224-3.378,43.832c-2.607,30.008-4.623,60.058-5.677,90.16
	c0.194,0.028,0.388,0.068,0.583,0.1C184.983,116.681,192.101,90.612,196.703,64.308z"/>
<path fill="#CC7722" d="M186.531,54.611c1.144-15.272,2.289-30.522,3.212-45.809c0.017-0.275,0.034-0.551,0.05-0.826
	c-3.884-0.244-10.866-1.77-11.92,3.573c1.396,19.848,1.709,35.961,1.711,55.692c0.001,25.269-0.319,50.536-0.509,75.804
	c1.23-0.007,2.455,0.065,3.671,0.182C182.682,113.653,184.321,84.098,186.531,54.611z"/>
<path fill="#CC7722" d="M99.55,78.704c-8.302-11.769-17.015-23.426-24.847-35.541c-5.394,4.142-16.992,11.803-12.664,16.181
	C72.386,70.405,80.183,78.467,90.99,89.08c20.069,19.714,39.274,40.304,59.344,60.011C132.302,126.492,116.195,102.301,99.55,78.704
	z"/>
<path fill="#CC7722" d="M101.576,74.815c18.062,25.885,35.328,52.329,53.974,77.801c0.417-0.396,0.841-0.787,1.274-1.166
	c-15.554-26.065-30.254-52.665-46.055-78.571c-7.85-12.874-15.134-26.041-22.268-39.291c-3.619,2.252-7.127,4.635-10.532,7.123
	C85.371,52.354,93.705,63.536,101.576,74.815z"/>
<path fill="#CC7722" d="M161.131,13.655c1.793,16.085,3.562,32.171,5.352,48.255c1.78,16.001,3.241,32.021,4.858,48.039
	c0.772,7.66,1.851,9.272,3.046,16.88c0.55,3.502,2.198,12.674,2.773,16.36c0.201-0.035,0.399-0.079,0.602-0.11
	c-0.966-25.82-2.146-51.033-2.518-76.864c-0.279-19.467-1.017-35.631-2.416-54.952c-0.201-4.066-8.188-2.588-12.203-2.093
	C160.796,10.664,160.964,12.158,161.131,13.655z"/>
<path fill="#CC7722" d="M148.721,38.48c2.975,12.332,5.957,24.689,8.352,37.149c3.058,15.913,11.439,58.699,15.939,67.574
	c0-3.625-2.855-21.539-3.25-25.25c-1.771-16.653-4.372-38.749-6.375-55.375c-2.014-16.716-3.977-33.036-6-49.75
	c-0.098-0.808,0.102-2.695,0-3.5c-3.805,0.545-11.682,1.644-15.479,2.454C143.682,20.772,146.595,29.667,148.721,38.48z"/>
<path fill="#CC7722" d="M148.253,68.147c6.425,25.664,13.272,51.145,21.454,76.272c0.26-0.072,0.518-0.151,0.777-0.218
	c-5.299-22.825-10.365-45.691-15.119-68.638c-2.778-13.413-6.03-26.726-9.365-40.009c-1.896-7.551-4.701-15.416-6.237-23.3
	c-1.978,0.469-6.713,1.271-5.313,4.617C140.339,34.724,143.777,50.267,148.253,68.147z"/>
<path fill="#CC7722" d="M137.759,71.467c9.497,24.685,16.26,50.58,27.957,74.38c0.489-0.214,0.976-0.436,1.479-0.626
	c0.101-0.038,0.2-0.066,0.301-0.103c-8.907-24.799-15.979-50.148-22.688-75.669c-3.9-14.846-7.574-29.777-12.133-44.44
	c-1.043-3.355-1.6-4.479-2.766-7.759c-1.383-2.952-7.758,0.126-11.334,1.478c-0.875,0.331-1.741,0.673-2.607,1.017
	C123.971,36.686,131.109,54.183,137.759,71.467z"/>
<path fill="#CC7722" d="M134.068,72.862c-6.957-17.358-15.01-34.201-22.826-51.153c-1.653,0.717-3.295,1.449-4.916,2.21
	c2.031,4.444,3.937,8.924,5.886,13.207c5.17,11.363,10.319,22.736,15.464,34.111c11.502,25.438,22.845,50.965,34.885,76.155
	c0.623-0.352,1.268-0.674,1.916-0.988C151.515,123.037,143.97,97.563,134.068,72.862z"/>
<path fill="#CC7722" d="M124.714,74.447c-5.531-11.924-11.028-23.863-16.548-35.792c-1.965-4.248-4.094-8.43-6.245-12.6
	c-3.277,1.653-6.483,3.4-9.614,5.237c7.357,13.758,15.184,27.223,22.839,40.812c14.604,25.922,28.886,52.014,43.2,78.095
	c0.891-0.691,1.831-1.327,2.793-1.934C148.078,124.111,136.268,99.355,124.714,74.447z"/>
</svg>
